<?xml version="1.0" encoding="UTF-8"?>
<!DOCTYPE svg PUBLIC "-//W3C//DTD SVG 1.1//EN" "http://www.w3.org/Graphics/SVG/1.1/DTD/svg11.dtd">
<svg xmlns="http://www.w3.org/2000/svg" version="1.1" width="50px" height="50px" style="shape-rendering:geometricPrecision; text-rendering:geometricPrecision; image-rendering:optimizeQuality; fill-rule:evenodd; clip-rule:evenodd" xmlns:xlink="http://www.w3.org/1999/xlink">
<g><path style="opacity:0.966" fill="#363535" d="M 9.5,-0.5 C 19.5,-0.5 29.5,-0.5 39.5,-0.5C 43.8333,1.83333 47.1667,5.16667 49.5,9.5C 49.5,19.8333 49.5,30.1667 49.5,40.5C 46.8333,43.8333 43.8333,46.8333 40.5,49.5C 29.8333,49.5 19.1667,49.5 8.5,49.5C 4.76189,46.7655 1.76189,43.4321 -0.5,39.5C -0.5,29.5 -0.5,19.5 -0.5,9.5C 1.85846,5.14152 5.19179,1.80818 9.5,-0.5 Z"/></g>
<g><path style="opacity:1" fill="#fb7466" d="M 24.5,12.5 C 39.3148,12.8174 44.8148,20.1508 41,34.5C 37.0213,41.0707 31.188,43.7374 23.5,42.5C 22.0047,42.5852 21.0047,41.9185 20.5,40.5C 22.9881,38.9307 25.4881,37.264 28,35.5C 28.8749,34.1268 29.3749,32.6268 29.5,31C 29.519,29.2082 29.1857,28.7082 28.5,29.5C 27.8333,25.8333 27.1667,22.1667 26.5,18.5C 25.8485,15.8484 24.1818,14.1818 21.5,13.5C 22.325,12.6143 23.325,12.281 24.5,12.5 Z"/></g>
<g><path style="opacity:1" fill="#e57465" d="M 17.5,8.5 C 12.3859,9.94665 9.38594,13.28 8.5,18.5C 7.77842,18.9175 7.27842,19.5842 7,20.5C 7.60602,12.5431 11.9394,7.54307 20,5.5C 20.5,5.83333 21,6.16667 21.5,6.5C 20.0508,7.17189 18.7175,7.83855 17.5,8.5 Z"/></g>
<g><path style="opacity:1" fill="#262829" d="M 17.5,8.5 C 19.099,8.23219 20.4324,8.56552 21.5,9.5C 24.4133,10.2411 27.4133,10.7411 30.5,11C 28.2922,11.1909 26.2922,11.6909 24.5,12.5C 23.325,12.281 22.325,12.6143 21.5,13.5C 24.1818,14.1818 25.8485,15.8484 26.5,18.5C 26.6658,23.1785 26.4992,27.8452 26,32.5C 22.6101,36.0324 18.9434,36.3658 15,33.5C 13.8263,29.9542 13.1596,26.2875 13,22.5C 10.4786,28.1448 11.6453,32.9781 16.5,37C 23.3036,38.7727 27.3036,36.2727 28.5,29.5C 29.1857,28.7082 29.519,29.2082 29.5,31C 29.3749,32.6268 28.8749,34.1268 28,35.5C 25.4881,37.264 22.9881,38.9307 20.5,40.5C 21.0047,41.9185 22.0047,42.5852 23.5,42.5C 25.9686,43.3171 28.6353,43.8171 31.5,44C 27.3829,45.1759 23.3829,45.1759 19.5,44C 16.6135,41.6274 13.7802,39.1274 11,36.5C 9.80921,31.7379 8.30921,27.0712 6.5,22.5C 7.85318,21.4763 8.51985,20.143 8.5,18.5C 9.38594,13.28 12.3859,9.94665 17.5,8.5 Z"/></g>
<g><path style="opacity:1" fill="#e36d60" d="M 21.5,9.5 C 16.2406,11.2634 12.7406,14.93 11,20.5C 11.1428,13.8526 14.6428,10.1859 21.5,9.5 Z"/></g>
<g><path style="opacity:1" fill="#ed7264" d="M 17.5,15.5 C 21.4454,14.5727 24.1121,15.906 25.5,19.5C 20.1667,20.8333 20.1667,22.1667 25.5,23.5C 24.2713,24.2811 22.938,24.7811 21.5,25C 26.8333,26 26.8333,27 21.5,28C 22.7932,28.49 24.1266,28.6567 25.5,28.5C 24.2883,34.5721 21.1216,35.9055 16,32.5C 15.51,31.2068 15.3433,29.8734 15.5,28.5C 19.3107,28.4042 19.3107,27.7376 15.5,26.5C 16.376,25.7492 17.376,25.2492 18.5,25C 14.6221,24.0514 14.6221,22.8847 18.5,21.5C 17.675,20.6143 16.675,20.281 15.5,20.5C 15.3915,18.4862 16.0582,16.8195 17.5,15.5 Z"/></g>
<g><path style="opacity:1" fill="#d96d60" d="M 26.5,18.5 C 27.1667,22.1667 27.8333,25.8333 28.5,29.5C 27.3036,36.2727 23.3036,38.7727 16.5,37C 11.6453,32.9781 10.4786,28.1448 13,22.5C 13.1596,26.2875 13.8263,29.9542 15,33.5C 18.9434,36.3658 22.6101,36.0324 26,32.5C 26.4992,27.8452 26.6658,23.1785 26.5,18.5 Z"/></g>
<g><path style="opacity:1" fill="#b85c52" d="M 16.5,39.5 C 17.3864,38.2241 18.3864,38.2241 19.5,39.5C 18.5754,40.5624 17.5754,40.5624 16.5,39.5 Z"/></g>
</svg>
